<mxfile host="app.diagrams.net" agent="Mozilla/5.0 (Windows NT 10.0; Win64; x64) AppleWebKit/537.36 (KHTML, like Gecko) Chrome/141.0.0.0 Safari/537.36" version="28.2.5">
  <diagram name="Trang-1" id="P6_eoKz5N8LoRXYNDzY7">
    <mxGraphModel grid="1" page="1" gridSize="10" guides="1" tooltips="1" connect="1" arrows="1" fold="1" pageScale="1" pageWidth="827" pageHeight="1169" math="0" shadow="0">
      <root>
        <mxCell id="0" />
        <mxCell id="1" parent="0" />
        <mxCell id="kj9_B7zYvbfbqNJdOM6g-10" value="&lt;i&gt;User&lt;/i&gt;" style="swimlane;fontStyle=1;align=center;verticalAlign=top;childLayout=stackLayout;horizontal=1;startSize=26;horizontalStack=0;resizeParent=1;resizeParentMax=0;resizeLast=0;collapsible=1;marginBottom=0;whiteSpace=wrap;html=1;" vertex="1" parent="1">
          <mxGeometry x="270" y="50" width="160" height="158" as="geometry" />
        </mxCell>
        <mxCell id="kj9_B7zYvbfbqNJdOM6g-11" value="+ username: string&lt;div&gt;+ password: string&lt;/div&gt;&lt;div&gt;+ email: string&lt;/div&gt;&lt;div&gt;+ createAt : Date&lt;/div&gt;" style="text;strokeColor=none;fillColor=none;align=left;verticalAlign=top;spacingLeft=4;spacingRight=4;overflow=hidden;rotatable=0;points=[[0,0.5],[1,0.5]];portConstraint=eastwest;whiteSpace=wrap;html=1;" vertex="1" parent="kj9_B7zYvbfbqNJdOM6g-10">
          <mxGeometry y="26" width="160" height="64" as="geometry" />
        </mxCell>
        <mxCell id="kj9_B7zYvbfbqNJdOM6g-12" value="" style="line;strokeWidth=1;fillColor=none;align=left;verticalAlign=middle;spacingTop=-1;spacingLeft=3;spacingRight=3;rotatable=0;labelPosition=right;points=[];portConstraint=eastwest;strokeColor=inherit;" vertex="1" parent="kj9_B7zYvbfbqNJdOM6g-10">
          <mxGeometry y="90" width="160" height="8" as="geometry" />
        </mxCell>
        <mxCell id="kj9_B7zYvbfbqNJdOM6g-13" value="+login()&lt;div&gt;+logout()&lt;/div&gt;&lt;div&gt;+resetPassword()&lt;/div&gt;" style="text;strokeColor=none;fillColor=none;align=left;verticalAlign=top;spacingLeft=4;spacingRight=4;overflow=hidden;rotatable=0;points=[[0,0.5],[1,0.5]];portConstraint=eastwest;whiteSpace=wrap;html=1;" vertex="1" parent="kj9_B7zYvbfbqNJdOM6g-10">
          <mxGeometry y="98" width="160" height="60" as="geometry" />
        </mxCell>
        <mxCell id="kj9_B7zYvbfbqNJdOM6g-18" style="edgeStyle=orthogonalEdgeStyle;rounded=0;orthogonalLoop=1;jettySize=auto;html=1;entryX=0;entryY=0.5;entryDx=0;entryDy=0;endArrow=block;endFill=0;" edge="1" parent="1" source="kj9_B7zYvbfbqNJdOM6g-14" target="kj9_B7zYvbfbqNJdOM6g-13">
          <mxGeometry relative="1" as="geometry" />
        </mxCell>
        <mxCell id="kj9_B7zYvbfbqNJdOM6g-14" value="Admin" style="swimlane;fontStyle=1;align=center;verticalAlign=top;childLayout=stackLayout;horizontal=1;startSize=26;horizontalStack=0;resizeParent=1;resizeParentMax=0;resizeLast=0;collapsible=1;marginBottom=0;whiteSpace=wrap;html=1;" vertex="1" parent="1">
          <mxGeometry x="-150" y="270" width="160" height="160" as="geometry" />
        </mxCell>
        <mxCell id="kj9_B7zYvbfbqNJdOM6g-15" value="- adminId: string&lt;div&gt;- role: string&lt;/div&gt;" style="text;strokeColor=none;fillColor=none;align=left;verticalAlign=top;spacingLeft=4;spacingRight=4;overflow=hidden;rotatable=0;points=[[0,0.5],[1,0.5]];portConstraint=eastwest;whiteSpace=wrap;html=1;" vertex="1" parent="kj9_B7zYvbfbqNJdOM6g-14">
          <mxGeometry y="26" width="160" height="34" as="geometry" />
        </mxCell>
        <mxCell id="kj9_B7zYvbfbqNJdOM6g-16" value="" style="line;strokeWidth=1;fillColor=none;align=left;verticalAlign=middle;spacingTop=-1;spacingLeft=3;spacingRight=3;rotatable=0;labelPosition=right;points=[];portConstraint=eastwest;strokeColor=inherit;" vertex="1" parent="kj9_B7zYvbfbqNJdOM6g-14">
          <mxGeometry y="60" width="160" height="8" as="geometry" />
        </mxCell>
        <mxCell id="kj9_B7zYvbfbqNJdOM6g-17" value="- createStudent()&lt;div&gt;- editStudent()&lt;/div&gt;&lt;div&gt;- softDeleteStudent()&lt;/div&gt;&lt;div&gt;- postAnnouncement()&lt;/div&gt;&lt;div&gt;- editPayment()&lt;/div&gt;" style="text;strokeColor=none;fillColor=none;align=left;verticalAlign=top;spacingLeft=4;spacingRight=4;overflow=hidden;rotatable=0;points=[[0,0.5],[1,0.5]];portConstraint=eastwest;whiteSpace=wrap;html=1;" vertex="1" parent="kj9_B7zYvbfbqNJdOM6g-14">
          <mxGeometry y="68" width="160" height="92" as="geometry" />
        </mxCell>
        <mxCell id="kj9_B7zYvbfbqNJdOM6g-23" style="edgeStyle=orthogonalEdgeStyle;rounded=0;orthogonalLoop=1;jettySize=auto;html=1;entryX=1;entryY=0.5;entryDx=0;entryDy=0;endArrow=block;endFill=0;" edge="1" parent="1" source="kj9_B7zYvbfbqNJdOM6g-19" target="kj9_B7zYvbfbqNJdOM6g-13">
          <mxGeometry relative="1" as="geometry" />
        </mxCell>
        <mxCell id="kj9_B7zYvbfbqNJdOM6g-19" value="Student" style="swimlane;fontStyle=1;align=center;verticalAlign=top;childLayout=stackLayout;horizontal=1;startSize=26;horizontalStack=0;resizeParent=1;resizeParentMax=0;resizeLast=0;collapsible=1;marginBottom=0;whiteSpace=wrap;html=1;" vertex="1" parent="1">
          <mxGeometry x="650" y="210" width="160" height="240" as="geometry" />
        </mxCell>
        <mxCell id="kj9_B7zYvbfbqNJdOM6g-20" value="- studentId: string&lt;div&gt;- fullName: string&lt;/div&gt;&lt;div&gt;- dob: Date&lt;/div&gt;&lt;div&gt;- gender: string&lt;/div&gt;&lt;div&gt;- address: string&lt;/div&gt;&lt;div&gt;- contact: Phone&lt;/div&gt;&lt;div&gt;- email: string&lt;/div&gt;&lt;div&gt;- role: string&lt;/div&gt;&lt;div&gt;- imageURL: string&lt;/div&gt;" style="text;strokeColor=none;fillColor=none;align=left;verticalAlign=top;spacingLeft=4;spacingRight=4;overflow=hidden;rotatable=0;points=[[0,0.5],[1,0.5]];portConstraint=eastwest;whiteSpace=wrap;html=1;" vertex="1" parent="kj9_B7zYvbfbqNJdOM6g-19">
          <mxGeometry y="26" width="160" height="134" as="geometry" />
        </mxCell>
        <mxCell id="kj9_B7zYvbfbqNJdOM6g-21" value="" style="line;strokeWidth=1;fillColor=none;align=left;verticalAlign=middle;spacingTop=-1;spacingLeft=3;spacingRight=3;rotatable=0;labelPosition=right;points=[];portConstraint=eastwest;strokeColor=inherit;" vertex="1" parent="kj9_B7zYvbfbqNJdOM6g-19">
          <mxGeometry y="160" width="160" height="8" as="geometry" />
        </mxCell>
        <mxCell id="kj9_B7zYvbfbqNJdOM6g-22" value="- updateProfile()&lt;div&gt;- viewFinancial()&lt;/div&gt;&lt;div&gt;- changePassword()&lt;/div&gt;&lt;div&gt;- viewNotification()&lt;/div&gt;" style="text;strokeColor=none;fillColor=none;align=left;verticalAlign=top;spacingLeft=4;spacingRight=4;overflow=hidden;rotatable=0;points=[[0,0.5],[1,0.5]];portConstraint=eastwest;whiteSpace=wrap;html=1;" vertex="1" parent="kj9_B7zYvbfbqNJdOM6g-19">
          <mxGeometry y="168" width="160" height="72" as="geometry" />
        </mxCell>
        <mxCell id="kj9_B7zYvbfbqNJdOM6g-24" value="Announcement" style="swimlane;fontStyle=1;align=center;verticalAlign=top;childLayout=stackLayout;horizontal=1;startSize=26;horizontalStack=0;resizeParent=1;resizeParentMax=0;resizeLast=0;collapsible=1;marginBottom=0;whiteSpace=wrap;html=1;" vertex="1" parent="1">
          <mxGeometry x="254" y="250" width="160" height="210" as="geometry" />
        </mxCell>
        <mxCell id="kj9_B7zYvbfbqNJdOM6g-25" value="- announcementId: string&lt;div&gt;- title: string&lt;/div&gt;&lt;div&gt;- content: string&lt;/div&gt;&lt;div&gt;- createBy: string&lt;/div&gt;&lt;div&gt;- createAt: Date&lt;/div&gt;&lt;div&gt;- visibleTo: string&lt;/div&gt;" style="text;strokeColor=none;fillColor=none;align=left;verticalAlign=top;spacingLeft=4;spacingRight=4;overflow=hidden;rotatable=0;points=[[0,0.5],[1,0.5]];portConstraint=eastwest;whiteSpace=wrap;html=1;" vertex="1" parent="kj9_B7zYvbfbqNJdOM6g-24">
          <mxGeometry y="26" width="160" height="94" as="geometry" />
        </mxCell>
        <mxCell id="kj9_B7zYvbfbqNJdOM6g-26" value="" style="line;strokeWidth=1;fillColor=none;align=left;verticalAlign=middle;spacingTop=-1;spacingLeft=3;spacingRight=3;rotatable=0;labelPosition=right;points=[];portConstraint=eastwest;strokeColor=inherit;" vertex="1" parent="kj9_B7zYvbfbqNJdOM6g-24">
          <mxGeometry y="120" width="160" height="8" as="geometry" />
        </mxCell>
        <mxCell id="kj9_B7zYvbfbqNJdOM6g-27" value="- edit()&lt;div&gt;- publish()&lt;/div&gt;&lt;div&gt;- delete()&lt;/div&gt;&lt;div&gt;- store()&lt;/div&gt;" style="text;strokeColor=none;fillColor=none;align=left;verticalAlign=top;spacingLeft=4;spacingRight=4;overflow=hidden;rotatable=0;points=[[0,0.5],[1,0.5]];portConstraint=eastwest;whiteSpace=wrap;html=1;" vertex="1" parent="kj9_B7zYvbfbqNJdOM6g-24">
          <mxGeometry y="128" width="160" height="82" as="geometry" />
        </mxCell>
        <mxCell id="kj9_B7zYvbfbqNJdOM6g-30" value="" style="endArrow=none;html=1;rounded=0;endFill=0;" edge="1" parent="1" source="kj9_B7zYvbfbqNJdOM6g-27" target="kj9_B7zYvbfbqNJdOM6g-17">
          <mxGeometry width="50" height="50" relative="1" as="geometry">
            <mxPoint x="270" y="510" as="sourcePoint" />
            <mxPoint x="320" y="460" as="targetPoint" />
          </mxGeometry>
        </mxCell>
        <mxCell id="kj9_B7zYvbfbqNJdOM6g-33" value="create" style="edgeLabel;html=1;align=center;verticalAlign=middle;resizable=0;points=[];" connectable="0" vertex="1" parent="kj9_B7zYvbfbqNJdOM6g-30">
          <mxGeometry x="0.0257" relative="1" as="geometry">
            <mxPoint as="offset" />
          </mxGeometry>
        </mxCell>
        <mxCell id="kj9_B7zYvbfbqNJdOM6g-31" value="1..*" style="text;html=1;align=center;verticalAlign=middle;resizable=0;points=[];autosize=1;strokeColor=none;fillColor=none;" vertex="1" parent="1">
          <mxGeometry x="10" y="360" width="40" height="30" as="geometry" />
        </mxCell>
        <mxCell id="kj9_B7zYvbfbqNJdOM6g-32" value="0..*" style="text;html=1;align=center;verticalAlign=middle;resizable=0;points=[];autosize=1;strokeColor=none;fillColor=none;" vertex="1" parent="1">
          <mxGeometry x="214" y="380" width="40" height="30" as="geometry" />
        </mxCell>
        <mxCell id="kj9_B7zYvbfbqNJdOM6g-34" value="" style="endArrow=none;html=1;rounded=0;entryX=0;entryY=0.5;entryDx=0;entryDy=0;exitX=1;exitY=0.5;exitDx=0;exitDy=0;endFill=0;" edge="1" parent="1" source="kj9_B7zYvbfbqNJdOM6g-27" target="kj9_B7zYvbfbqNJdOM6g-22">
          <mxGeometry width="50" height="50" relative="1" as="geometry">
            <mxPoint x="320" y="640" as="sourcePoint" />
            <mxPoint x="370" y="590" as="targetPoint" />
          </mxGeometry>
        </mxCell>
        <mxCell id="kj9_B7zYvbfbqNJdOM6g-35" value="receive" style="edgeLabel;html=1;align=center;verticalAlign=middle;resizable=0;points=[];" connectable="0" vertex="1" parent="kj9_B7zYvbfbqNJdOM6g-34">
          <mxGeometry x="0.0348" y="-2" relative="1" as="geometry">
            <mxPoint as="offset" />
          </mxGeometry>
        </mxCell>
        <mxCell id="kj9_B7zYvbfbqNJdOM6g-36" value="1..*" style="text;html=1;align=center;verticalAlign=middle;resizable=0;points=[];autosize=1;strokeColor=none;fillColor=none;" vertex="1" parent="1">
          <mxGeometry x="610" y="380" width="40" height="30" as="geometry" />
        </mxCell>
        <mxCell id="kj9_B7zYvbfbqNJdOM6g-37" value="0..*" style="text;html=1;align=center;verticalAlign=middle;resizable=0;points=[];autosize=1;strokeColor=none;fillColor=none;" vertex="1" parent="1">
          <mxGeometry x="414" y="390" width="40" height="30" as="geometry" />
        </mxCell>
        <mxCell id="kj9_B7zYvbfbqNJdOM6g-38" value="Fee" style="swimlane;fontStyle=1;align=center;verticalAlign=top;childLayout=stackLayout;horizontal=1;startSize=26;horizontalStack=0;resizeParent=1;resizeParentMax=0;resizeLast=0;collapsible=1;marginBottom=0;whiteSpace=wrap;html=1;" vertex="1" parent="1">
          <mxGeometry x="240" y="700" width="160" height="154" as="geometry" />
        </mxCell>
        <mxCell id="kj9_B7zYvbfbqNJdOM6g-39" value="- feeID: string&lt;div&gt;- description: string&lt;/div&gt;&lt;div&gt;- amount: Decimal&lt;/div&gt;&lt;div&gt;- status: string&lt;/div&gt;&lt;div&gt;- dueDate: Date&lt;/div&gt;&lt;div&gt;- period: Date&lt;/div&gt;" style="text;strokeColor=none;fillColor=none;align=left;verticalAlign=top;spacingLeft=4;spacingRight=4;overflow=hidden;rotatable=0;points=[[0,0.5],[1,0.5]];portConstraint=eastwest;whiteSpace=wrap;html=1;" vertex="1" parent="kj9_B7zYvbfbqNJdOM6g-38">
          <mxGeometry y="26" width="160" height="94" as="geometry" />
        </mxCell>
        <mxCell id="kj9_B7zYvbfbqNJdOM6g-40" value="" style="line;strokeWidth=1;fillColor=none;align=left;verticalAlign=middle;spacingTop=-1;spacingLeft=3;spacingRight=3;rotatable=0;labelPosition=right;points=[];portConstraint=eastwest;strokeColor=inherit;" vertex="1" parent="kj9_B7zYvbfbqNJdOM6g-38">
          <mxGeometry y="120" width="160" height="8" as="geometry" />
        </mxCell>
        <mxCell id="kj9_B7zYvbfbqNJdOM6g-41" value="- markPaid()" style="text;strokeColor=none;fillColor=none;align=left;verticalAlign=top;spacingLeft=4;spacingRight=4;overflow=hidden;rotatable=0;points=[[0,0.5],[1,0.5]];portConstraint=eastwest;whiteSpace=wrap;html=1;" vertex="1" parent="kj9_B7zYvbfbqNJdOM6g-38">
          <mxGeometry y="128" width="160" height="26" as="geometry" />
        </mxCell>
        <mxCell id="kj9_B7zYvbfbqNJdOM6g-44" value="Transaction" style="swimlane;fontStyle=1;align=center;verticalAlign=top;childLayout=stackLayout;horizontal=1;startSize=26;horizontalStack=0;resizeParent=1;resizeParentMax=0;resizeLast=0;collapsible=1;marginBottom=0;whiteSpace=wrap;html=1;" vertex="1" parent="1">
          <mxGeometry x="610" y="580" width="160" height="154" as="geometry" />
        </mxCell>
        <mxCell id="kj9_B7zYvbfbqNJdOM6g-45" value="- transactionID: string&lt;div&gt;- studentID: string&lt;/div&gt;&lt;div&gt;- amount: Decimal&lt;/div&gt;&lt;div&gt;- status: string&lt;/div&gt;&lt;div&gt;- method: string&lt;/div&gt;&lt;div&gt;- date: Date&lt;/div&gt;" style="text;strokeColor=none;fillColor=none;align=left;verticalAlign=top;spacingLeft=4;spacingRight=4;overflow=hidden;rotatable=0;points=[[0,0.5],[1,0.5]];portConstraint=eastwest;whiteSpace=wrap;html=1;" vertex="1" parent="kj9_B7zYvbfbqNJdOM6g-44">
          <mxGeometry y="26" width="160" height="94" as="geometry" />
        </mxCell>
        <mxCell id="kj9_B7zYvbfbqNJdOM6g-46" value="" style="line;strokeWidth=1;fillColor=none;align=left;verticalAlign=middle;spacingTop=-1;spacingLeft=3;spacingRight=3;rotatable=0;labelPosition=right;points=[];portConstraint=eastwest;strokeColor=inherit;" vertex="1" parent="kj9_B7zYvbfbqNJdOM6g-44">
          <mxGeometry y="120" width="160" height="8" as="geometry" />
        </mxCell>
        <mxCell id="kj9_B7zYvbfbqNJdOM6g-47" value="- payment()" style="text;strokeColor=none;fillColor=none;align=left;verticalAlign=top;spacingLeft=4;spacingRight=4;overflow=hidden;rotatable=0;points=[[0,0.5],[1,0.5]];portConstraint=eastwest;whiteSpace=wrap;html=1;" vertex="1" parent="kj9_B7zYvbfbqNJdOM6g-44">
          <mxGeometry y="128" width="160" height="26" as="geometry" />
        </mxCell>
        <mxCell id="kj9_B7zYvbfbqNJdOM6g-48" value="" style="endArrow=none;html=1;rounded=0;exitX=0.5;exitY=0;exitDx=0;exitDy=0;endFill=0;" edge="1" parent="1" source="kj9_B7zYvbfbqNJdOM6g-44" target="kj9_B7zYvbfbqNJdOM6g-22">
          <mxGeometry width="50" height="50" relative="1" as="geometry">
            <mxPoint x="670" y="540" as="sourcePoint" />
            <mxPoint x="720" y="490" as="targetPoint" />
          </mxGeometry>
        </mxCell>
        <mxCell id="kj9_B7zYvbfbqNJdOM6g-52" value="has" style="edgeLabel;html=1;align=center;verticalAlign=middle;resizable=0;points=[];" connectable="0" vertex="1" parent="kj9_B7zYvbfbqNJdOM6g-48">
          <mxGeometry x="-0.0507" y="-3" relative="1" as="geometry">
            <mxPoint as="offset" />
          </mxGeometry>
        </mxCell>
        <mxCell id="kj9_B7zYvbfbqNJdOM6g-49" value="" style="endArrow=none;html=1;rounded=0;" edge="1" parent="1" source="kj9_B7zYvbfbqNJdOM6g-38" target="kj9_B7zYvbfbqNJdOM6g-22">
          <mxGeometry width="50" height="50" relative="1" as="geometry">
            <mxPoint x="550" y="540" as="sourcePoint" />
            <mxPoint x="600" y="490" as="targetPoint" />
          </mxGeometry>
        </mxCell>
        <mxCell id="kj9_B7zYvbfbqNJdOM6g-51" value="has" style="edgeLabel;html=1;align=center;verticalAlign=middle;resizable=0;points=[];" connectable="0" vertex="1" parent="kj9_B7zYvbfbqNJdOM6g-49">
          <mxGeometry x="0.2076" y="2" relative="1" as="geometry">
            <mxPoint as="offset" />
          </mxGeometry>
        </mxCell>
        <mxCell id="kj9_B7zYvbfbqNJdOM6g-50" value="" style="endArrow=none;html=1;rounded=0;exitX=0.994;exitY=0.579;exitDx=0;exitDy=0;exitPerimeter=0;endFill=0;" edge="1" parent="1" source="kj9_B7zYvbfbqNJdOM6g-39" target="kj9_B7zYvbfbqNJdOM6g-45">
          <mxGeometry width="50" height="50" relative="1" as="geometry">
            <mxPoint x="430" y="780" as="sourcePoint" />
            <mxPoint x="480" y="730" as="targetPoint" />
          </mxGeometry>
        </mxCell>
        <mxCell id="kj9_B7zYvbfbqNJdOM6g-58" value="&lt;span style=&quot;font-size: 12px; background-color: rgb(255, 255, 255);&quot;&gt;contain&lt;/span&gt;" style="edgeLabel;html=1;align=center;verticalAlign=middle;resizable=0;points=[];" connectable="0" vertex="1" parent="kj9_B7zYvbfbqNJdOM6g-50">
          <mxGeometry x="0.0958" y="1" relative="1" as="geometry">
            <mxPoint as="offset" />
          </mxGeometry>
        </mxCell>
        <mxCell id="kj9_B7zYvbfbqNJdOM6g-53" value="0..*" style="text;html=1;align=center;verticalAlign=middle;resizable=0;points=[];autosize=1;strokeColor=none;fillColor=none;" vertex="1" parent="1">
          <mxGeometry x="690" y="558" width="40" height="30" as="geometry" />
        </mxCell>
        <mxCell id="kj9_B7zYvbfbqNJdOM6g-54" value="1" style="text;html=1;align=center;verticalAlign=middle;resizable=0;points=[];autosize=1;strokeColor=none;fillColor=none;" vertex="1" parent="1">
          <mxGeometry x="715" y="448" width="30" height="30" as="geometry" />
        </mxCell>
        <mxCell id="kj9_B7zYvbfbqNJdOM6g-55" value="1" style="text;html=1;align=center;verticalAlign=middle;resizable=0;points=[];autosize=1;strokeColor=none;fillColor=none;" vertex="1" parent="1">
          <mxGeometry x="635" y="448" width="30" height="30" as="geometry" />
        </mxCell>
        <mxCell id="kj9_B7zYvbfbqNJdOM6g-56" value="1" style="text;html=1;align=center;verticalAlign=middle;resizable=0;points=[];autosize=1;strokeColor=none;fillColor=none;" vertex="1" parent="1">
          <mxGeometry x="380" y="670" width="30" height="30" as="geometry" />
        </mxCell>
        <mxCell id="kj9_B7zYvbfbqNJdOM6g-59" value="1" style="text;html=1;align=center;verticalAlign=middle;resizable=0;points=[];autosize=1;strokeColor=none;fillColor=none;" vertex="1" parent="1">
          <mxGeometry x="585" y="698" width="30" height="30" as="geometry" />
        </mxCell>
        <mxCell id="kj9_B7zYvbfbqNJdOM6g-60" value="1..*" style="text;html=1;align=center;verticalAlign=middle;resizable=0;points=[];autosize=1;strokeColor=none;fillColor=none;" vertex="1" parent="1">
          <mxGeometry x="390" y="768" width="40" height="30" as="geometry" />
        </mxCell>
      </root>
    </mxGraphModel>
  </diagram>
</mxfile>
